<?xml version="1.0" standalone="no"?>
<!DOCTYPE svg PUBLIC "-//W3C//DTD SVG 20010904//EN"
 "http://www.w3.org/TR/2001/REC-SVG-20010904/DTD/svg10.dtd">
<svg version="1.0" xmlns="http://www.w3.org/2000/svg"
 width="900.000000pt" height="520.000000pt" viewBox="0 0 900.000000 520.000000"
 preserveAspectRatio="xMidYMid meet">
<metadata>
Created by potrace 1.16, written by Peter Selinger 2001-2019
</metadata>
<g transform="translate(0.000000,520.000000) scale(0.100000,-0.100000)"
fill="#795547" stroke="none">
<path d="M3730 4336 c-126 -52 -283 -142 -411 -237 -70 -53 -93 -63 -177 -84
-53 -14 -130 -37 -170 -52 -71 -25 -74 -28 -103 -85 l-29 -58 -68 0 c-236 0
-464 -199 -480 -419 -7 -99 7 -144 100 -328 72 -143 83 -171 86 -226 4 -61 2
-66 -29 -102 -64 -72 -190 -107 -312 -87 l-58 9 48 -49 c92 -93 216 -138 388
-138 100 0 135 5 242 36 15 4 24 2 27 -7 34 -123 40 -136 80 -175 29 -28 60
-45 97 -56 61 -17 69 -16 46 10 -18 20 -47 84 -47 104 0 7 8 0 18 -17 27 -44
94 -101 133 -113 19 -6 66 -16 104 -22 39 -6 81 -13 95 -16 16 -3 11 2 -15 14
-54 27 -119 96 -147 157 -31 70 -31 205 1 330 33 129 34 129 74 91 70 -66 195
-109 355 -122 68 -6 86 -11 98 -28 19 -28 5 -32 -64 -15 -52 12 -56 12 -72 -9
-10 -12 -23 -50 -29 -84 -21 -109 13 -253 73 -307 64 -59 1 -165 -145 -242
l-62 -34 44 -12 c60 -17 119 -44 119 -55 0 -15 -42 -73 -67 -91 -53 -40 -123
-12 -123 50 0 39 -32 25 -57 -27 -37 -72 -27 -196 17 -220 26 -14 46 -3 60 30
l12 29 34 -35 c29 -28 42 -34 79 -34 69 0 138 63 178 162 4 10 8 9 16 -2 14
-19 14 -138 0 -235 -11 -81 -82 -381 -100 -427 l-11 -28 -349 0 -349 0 0 -240
0 -240 1870 0 1870 0 0 240 0 240 -154 0 c-144 0 -154 1 -167 21 -12 17 -18
19 -40 11 -14 -6 -66 -11 -115 -12 -153 -3 -138 -10 -173 78 -33 83 -66 211
-56 220 3 4 34 -1 68 -10 34 -9 64 -15 66 -13 2 2 -5 24 -14 49 -18 48 -26
172 -12 194 6 9 16 6 41 -13 18 -14 55 -33 81 -42 47 -16 48 -16 66 8 62 82
48 274 -29 396 -26 41 -30 43 -74 43 -37 0 -50 5 -62 22 -24 34 -19 52 21 73
89 48 227 219 283 353 26 61 31 67 70 78 128 38 196 158 167 297 l-8 37 51 0
c46 0 50 2 50 24 0 51 -32 206 -60 291 -43 128 -66 165 -125 197 -74 40 -254
95 -390 119 -143 25 -456 36 -588 21 -79 -9 -97 -15 -170 -58 -92 -55 -249
-204 -310 -295 -31 -45 -40 -71 -49 -130 -12 -87 -5 -239 17 -363 17 -98 14
-135 -10 -102 -9 12 -21 17 -35 13 -17 -4 -20 0 -20 30 0 30 -3 34 -22 31 -14
-2 -29 -18 -44 -47 -20 -41 -22 -43 -33 -23 -16 30 -51 39 -67 17 -7 -9 -10
-24 -7 -32 3 -8 0 -26 -8 -39 l-13 -25 -17 22 c-27 36 -49 19 -49 -39 0 -45
-2 -48 -32 -57 -23 -7 -34 -17 -36 -33 -2 -12 -12 -27 -23 -32 -25 -14 -24
-44 2 -62 21 -13 21 -15 5 -47 -10 -18 -15 -40 -12 -48 5 -13 1 -14 -23 -10
-23 5 -29 3 -25 -8 7 -18 30 -27 89 -34 42 -5 49 -9 47 -25 -3 -14 1 -17 13
-12 12 4 73 -34 196 -120 98 -69 179 -130 179 -135 0 -6 9 -30 20 -55 14 -31
27 -44 41 -44 11 0 22 -7 25 -15 4 -8 14 -15 24 -15 16 0 19 -13 25 -100 7
-97 17 -122 30 -79 6 19 8 19 24 5 26 -23 38 -20 50 15 l11 31 29 -21 30 -21
13 27 c14 27 12 31 -30 91 -24 35 -42 65 -39 68 3 3 22 1 44 -5 50 -14 228
-14 293 0 28 6 54 8 57 5 3 -3 -1 -34 -10 -68 -9 -35 -22 -103 -29 -151 l-12
-88 -63 7 c-35 3 -84 3 -109 -1 l-46 -7 6 -46 c7 -59 61 -168 120 -247 l45
-60 -937 -3 c-658 -2 -948 0 -975 8 -24 7 -42 20 -49 35 -10 22 -6 33 34 92
102 154 165 291 193 417 11 49 22 76 31 76 14 0 26 35 50 153 12 58 15 118 13
228 l-4 149 27 0 c15 0 39 5 53 12 35 16 33 52 -7 133 l-32 65 36 30 c19 16
43 46 53 65 14 31 15 44 5 86 -10 40 -16 49 -34 49 -24 0 -56 -19 -98 -58
l-28 -25 -15 37 c-21 51 -51 61 -92 30 l-32 -24 -15 22 c-9 12 -16 26 -16 30
0 3 26 12 58 18 96 19 183 48 260 85 41 19 75 35 77 35 2 0 5 -19 7 -42 l3
-43 61 -7 c34 -3 70 -8 80 -10 35 -6 48 45 54 202 4 94 10 155 19 173 12 22
12 34 2 65 -7 20 -23 75 -36 120 -23 80 -24 86 -9 144 17 64 13 90 -4 39 -6
-17 -13 -31 -16 -31 -4 0 -6 34 -6 76 0 88 -8 87 130 20 67 -32 104 -59 173
-126 l87 -86 0 42 c0 109 -53 312 -107 403 -89 154 -239 302 -417 410 -121 75
-342 181 -372 180 -16 0 -54 -11 -84 -23z m-916 -1041 c20 -68 53 -130 98
-181 33 -37 32 -45 -8 -99 -15 -20 -15 -20 -35 5 -37 45 -87 165 -100 235 -12
68 -8 194 8 265 6 28 9 16 14 -65 3 -55 14 -127 23 -160z m2400 -597 c3 -13 6
-79 6 -148 0 -69 6 -150 14 -181 27 -118 116 -223 239 -284 93 -46 162 -57
314 -53 67 2 123 1 123 -1 0 -13 -36 -41 -51 -41 -10 0 -30 -11 -46 -24 -39
-32 -54 -39 -173 -81 -127 -44 -223 -65 -295 -65 -51 0 -55 2 -61 28 -3 15
-14 50 -24 77 -10 28 -39 118 -65 200 -26 83 -58 174 -71 204 -29 64 -30 74
-5 42 18 -23 18 -22 24 80 4 57 16 139 27 183 11 43 20 80 20 82 0 15 19 0 24
-18z m497 -1394 c30 -9 59 -20 65 -25 6 -5 14 -37 17 -72 3 -34 9 -77 13 -94
l7 -33 -75 0 -75 0 -17 63 c-10 34 -20 88 -23 120 -7 66 -4 68 88 41z"/>
<path d="M4703 2958 c-6 -7 -12 -20 -16 -29 -3 -11 -14 -15 -35 -11 -23 3 -31
0 -36 -16 -14 -44 34 -104 94 -117 60 -13 86 28 68 108 -14 64 -51 96 -75 65z"/>
<path d="M4361 2414 c-12 -15 -21 -33 -21 -42 0 -10 -6 -12 -22 -7 -59 18 -66
17 -83 -9 -14 -21 -15 -31 -5 -62 19 -56 73 -109 125 -124 77 -21 105 6 105
101 0 79 -37 169 -69 169 -5 0 -19 -12 -30 -26z"/>
</g>
</svg>
